<svg width="1831" height="1972" viewBox="0 0 1831 1972" fill="none" xmlns="http://www.w3.org/2000/svg">
<g clip-path="url(#clip0_4777_965)">
<g opacity="0.05" clip-path="url(#clip1_4777_965)">
<mask id="mask0_4777_965" style="mask-type:alpha" maskUnits="userSpaceOnUse" x="0" y="0" width="1831" height="3630">
<mask id="mask1_4777_965" style="mask-type:luminance" maskUnits="userSpaceOnUse" x="0" y="0" width="1831" height="3630">
<path d="M1831 0H0V3630H1831V0Z" fill="white"/>
</mask>
<g mask="url(#mask1_4777_965)">
<g style="mix-blend-mode:overlay">
<g style="mix-blend-mode:overlay">
<path d="M2293.2 4212.42L827.818 3199.55L-398.173 1972.19L-461.605 1997.57" stroke="url(#paint0_linear_4777_965)" stroke-width="2" stroke-linecap="round" stroke-linejoin="round"/>
</g>
<g style="mix-blend-mode:overlay">
<path d="M2293.2 344.858L1285.35 308.772L610.312 152.139L321.861 148.305L50.1307 132.517L-205.782 107.37L-461.605 -211.309" stroke="url(#paint1_linear_4777_965)" stroke-width="2" stroke-linecap="round" stroke-linejoin="round"/>
</g>
<g style="mix-blend-mode:overlay">
<path d="M2293.2 699.734L1396.83 633.992L568.945 409.923L236.076 436.198L-205.782 107.37L-447.629 75.9083L-461.605 73.7656" stroke="url(#paint2_linear_4777_965)" stroke-width="2" stroke-linecap="round" stroke-linejoin="round"/>
</g>
<g style="mix-blend-mode:overlay">
<path d="M2293.2 3094.68L1514.2 2748.71L99.4965 1784.55L-398.173 1972.19L-461.605 1875.67" stroke="url(#paint3_linear_4777_965)" stroke-width="2" stroke-linecap="round" stroke-linejoin="round"/>
</g>
<g style="mix-blend-mode:overlay">
<path d="M2293.2 12.7586L1572.75 67.112L1236.98 113.459L827.945 27.9818L673.328 -4.38213L663.505 -6.41192L276.359 -185.599L47.1876 -372.792L23.3171 -392.3L-119.382 -589.755L-131.625 -606.67L-216.291 -816.867L-311.773 -909.674L-400.664 -1001.35L-461.605 -1066.99" stroke="url(#paint4_linear_4777_965)" stroke-width="2" stroke-linecap="round" stroke-linejoin="round"/>
</g>
<g style="mix-blend-mode:overlay">
<path d="M2293.2 1292.44L1636.51 1201.1L554.174 837.311L157.043 915.345L-381.218 456.385L-461.605 456.61" stroke="url(#paint5_linear_4777_965)" stroke-width="2" stroke-linecap="round" stroke-linejoin="round"/>
</g>
<g style="mix-blend-mode:overlay">
<path d="M2293.2 191.268L1667.96 228.368L1285.35 308.771L918.786 368.425L568.945 409.923L50.1307 132.516L-253.343 -146.694L-266.65 -158.986L-443.061 -433.798L-449.399 -443.609L-461.605 -479.018" stroke="url(#paint6_linear_4777_965)" stroke-width="2" stroke-linecap="round" stroke-linejoin="round"/>
</g>
<g style="mix-blend-mode:overlay">
<path d="M2293.2 346.548L1840.85 501.49L918.786 368.425L321.861 148.305L-35.023 -93.8061L-56.4559 -108.241L-266.65 -158.986L-461.605 -213.564" stroke="url(#paint7_linear_4777_965)" stroke-width="2" stroke-linecap="round" stroke-linejoin="round"/>
</g>
<g style="mix-blend-mode:overlay">
<path d="M2293.2 487.731L1840.85 501.488L1396.83 633.99L967.847 744.614L554.174 837.308L-79.857 450.405L-447.629 75.9061L-461.605 51.8867" stroke="url(#paint8_linear_4777_965)" stroke-width="2" stroke-linecap="round" stroke-linejoin="round"/>
</g>
<g style="mix-blend-mode:overlay">
<path d="M2293.2 -57.834L1922.9 -0.210209L1221.68 -2.57826L935.561 3.06008L663.505 -6.41224L408.098 -29.7551L167.985 -64.4873L-56.4559 -108.24L-275.443 -360.049L-286.638 -372.905L-415.182 -629.675L-461.605 -820.363" stroke="url(#paint9_linear_4777_965)" stroke-width="2" stroke-linecap="round" stroke-linejoin="round"/>
</g>
<g style="mix-blend-mode:overlay">
<path d="M2293.2 92.4835L2063.07 125.976L1236.98 113.458L915.157 141.424L610.312 152.137L199.909 -48.8133L167.985 -64.4879L-93.5076 -289.007L-112.178 -305.019L-270.749 -535.515L-279.687 -548.483L-367.911 -782.699L-461.605 -860.283" stroke="url(#paint10_linear_4777_965)" stroke-width="2" stroke-linecap="round" stroke-linejoin="round"/>
</g>
<g style="mix-blend-mode:overlay">
<path d="M2293.2 919.854L2167.86 977.256L967.847 744.615L236.076 436.198L-79.857 450.407L-381.218 456.383L-461.605 343.277" stroke="url(#paint11_linear_4777_965)" stroke-width="2" stroke-linecap="round" stroke-linejoin="round"/>
</g>
<g style="mix-blend-mode:overlay">
<path d="M2293.2 979.736L2167.86 977.257L1636.51 1201.09L1114.01 1406.89L603.324 1598.59L-226.836 984.136L-461.605 704.357" stroke="url(#paint12_linear_4777_965)" stroke-width="2" stroke-linecap="round" stroke-linejoin="round"/>
</g>
<g style="mix-blend-mode:overlay">
<path d="M2293.2 2249.94L2185.57 2318.84L603.324 1598.6L99.4965 1784.55L-461.605 1191.96" stroke="url(#paint13_linear_4777_965)" stroke-width="2" stroke-linecap="round" stroke-linejoin="round"/>
</g>
<g style="mix-blend-mode:overlay">
<path d="M2293.2 -426.694L2276.03 -482.175L2202.43 -624.036L2129.61 -757.439L2058.12 -882.271L1987.04 -999.892L1916.96 -1109.84L1846.96 -1213.69L1777.58 -1310.79L1707.92 -1402.35L1638.57 -1487.71L1568.49 -1568.01L1498.43 -1642.55L1427.27 -1712.01L1355.81 -1775.72L1282.88 -1834.25L1209.35 -1886.91L1134.11 -1933.82L1058 -1974.42L979.999 -2008.59L901.001 -2035.65L820.072 -2055.05L738.15 -2066.32L654.477 -2068.7L570.082 -2061.7L484.458 -2044.11L398.745 -2015.47L312.887 -1974.42L228.257 -1920.52L145.396 -1852.29L66.1648 -1769.29L-7.83019 -1670.06L-73.7901 -1554.37L-128.374 -1421.07L-166.997 -1270.53L-183.266 -1102.61L-169.092 -919.485L-112.611 -723.609L-103.421 -707.144L0.927155 -520.967L20.2475 -500.894L193.372 -320.693L232.41 -296.786L491.754 -138.011L553.687 -118.389L935.561 3.06071L1572.75 67.1123L1922.9 -0.20952L2281.5 -87.3782L2293.2 -90.761" stroke="url(#paint14_linear_4777_965)" stroke-width="2" stroke-linecap="round" stroke-linejoin="round"/>
</g>
<g style="mix-blend-mode:overlay">
<path d="M2293.2 -593.589L2285.06 -618.51L2212.94 -751.236L2142 -875.957L2072.79 -992.11L2004.42 -1101.61L1937.51 -1203.65L1871.02 -1300.07L1805.68 -1390.17L1740.4 -1475.31L1675.89 -1555.04L1611.05 -1630.25L1546.63 -1700.62L1481.44 -1766.93L1416.33 -1828.61L1350.04 -1886.35L1283.45 -1939.46L1215.31 -1988.52L1146.51 -2032.72L1075.82 -2072.41L1004.18 -2107.03L930.343 -2136.13L855.336 -2159.47L778.001 -2176.27L699.347 -2186.31L618.419 -2188.45L536.244 -2182.58L452.065 -2167.13L367.002 -2141.99L280.692 -2105.56L194.347 -2057.42L108.128 -1995.85L23.6421 -1920.4L-58.1352 -1829.29L-134.911 -1721.93L-204.301 -1596.76L-262.551 -1453.43L-304.803 -1290.83L-324.358 -1109.39L-311.773 -909.674L-254.39 -694.515L-133.756 -468.756L-118.262 -451.954L74.9222 -241.869L103.162 -223.939L408.098 -29.7544L455.894 -13.6289L915.157 141.425L1667.96 228.369L2063.07 125.976L2293.2 54.2569" stroke="url(#paint15_linear_4777_965)" stroke-width="2" stroke-linecap="round" stroke-linejoin="round"/>
</g>
<g style="mix-blend-mode:overlay">
<path d="M2293.2 1736.39L2106.43 1684.18L1114.01 1406.9L157.043 915.344L-226.836 984.135L-461.605 1024.5" stroke="url(#paint16_linear_4777_965)" stroke-width="2" stroke-linecap="round" stroke-linejoin="round"/>
</g>
</g>
<g style="mix-blend-mode:overlay">
<g style="mix-blend-mode:overlay">
<path d="M2293.2 4212.42L827.818 3199.55L-398.173 1972.19L-461.605 1997.57" stroke="url(#paint17_linear_4777_965)" stroke-width="2" stroke-linecap="round" stroke-linejoin="round"/>
</g>
<g style="mix-blend-mode:overlay">
<path d="M2293.2 344.858L1285.35 308.772L610.312 152.139L321.861 148.305L50.1307 132.517L-205.782 107.37L-461.605 -211.309" stroke="url(#paint18_linear_4777_965)" stroke-width="2" stroke-linecap="round" stroke-linejoin="round"/>
</g>
<g style="mix-blend-mode:overlay">
<path d="M2293.2 699.734L1396.83 633.992L568.945 409.923L236.076 436.198L-205.782 107.37L-447.629 75.9083L-461.605 73.7656" stroke="url(#paint19_linear_4777_965)" stroke-width="2" stroke-linecap="round" stroke-linejoin="round"/>
</g>
<g style="mix-blend-mode:overlay">
<path d="M2293.2 3094.68L1514.2 2748.71L99.4965 1784.55L-398.173 1972.19L-461.605 1875.67" stroke="url(#paint20_linear_4777_965)" stroke-width="2" stroke-linecap="round" stroke-linejoin="round"/>
</g>
<g style="mix-blend-mode:overlay">
<path d="M2293.2 12.7586L1572.75 67.112L1236.98 113.459L827.945 27.9818L673.328 -4.38213L663.505 -6.41192L276.359 -185.599L47.1876 -372.792L23.3171 -392.3L-119.382 -589.755L-131.625 -606.67L-216.291 -816.867L-311.773 -909.674L-400.664 -1001.35L-461.605 -1066.99" stroke="url(#paint21_linear_4777_965)" stroke-width="2" stroke-linecap="round" stroke-linejoin="round"/>
</g>
<g style="mix-blend-mode:overlay">
<path d="M2293.2 1292.44L1636.51 1201.1L554.174 837.311L157.043 915.345L-381.218 456.385L-461.605 456.61" stroke="url(#paint22_linear_4777_965)" stroke-width="2" stroke-linecap="round" stroke-linejoin="round"/>
</g>
<g style="mix-blend-mode:overlay">
<path d="M2293.2 191.268L1667.96 228.368L1285.35 308.771L918.786 368.425L568.945 409.923L50.1307 132.516L-253.343 -146.694L-266.65 -158.986L-443.061 -433.798L-449.399 -443.609L-461.605 -479.018" stroke="url(#paint23_linear_4777_965)" stroke-width="2" stroke-linecap="round" stroke-linejoin="round"/>
</g>
<g style="mix-blend-mode:overlay">
<path d="M2293.2 346.548L1840.85 501.49L918.786 368.425L321.861 148.305L-35.023 -93.8061L-56.4559 -108.241L-266.65 -158.986L-461.605 -213.564" stroke="url(#paint24_linear_4777_965)" stroke-width="2" stroke-linecap="round" stroke-linejoin="round"/>
</g>
<g style="mix-blend-mode:overlay">
<path d="M2293.2 487.731L1840.85 501.488L1396.83 633.99L967.847 744.614L554.174 837.308L-79.857 450.405L-447.629 75.9061L-461.605 51.8867" stroke="url(#paint25_linear_4777_965)" stroke-width="2" stroke-linecap="round" stroke-linejoin="round"/>
</g>
<g style="mix-blend-mode:overlay">
<path d="M2293.2 -57.834L1922.9 -0.210209L1221.68 -2.57826L935.561 3.06008L663.505 -6.41224L408.098 -29.7551L167.985 -64.4873L-56.4559 -108.24L-275.443 -360.049L-286.638 -372.905L-415.182 -629.675L-461.605 -820.363" stroke="url(#paint26_linear_4777_965)" stroke-width="2" stroke-linecap="round" stroke-linejoin="round"/>
</g>
<g style="mix-blend-mode:overlay">
<path d="M2293.2 92.4835L2063.07 125.976L1236.98 113.458L915.157 141.424L610.312 152.137L199.909 -48.8133L167.985 -64.4879L-93.5076 -289.007L-112.178 -305.019L-270.749 -535.515L-279.687 -548.483L-367.911 -782.699L-461.605 -860.283" stroke="url(#paint27_linear_4777_965)" stroke-width="2" stroke-linecap="round" stroke-linejoin="round"/>
</g>
<g style="mix-blend-mode:overlay">
<path d="M2293.2 919.854L2167.86 977.256L967.847 744.615L236.076 436.198L-79.857 450.407L-381.218 456.383L-461.605 343.277" stroke="url(#paint28_linear_4777_965)" stroke-width="2" stroke-linecap="round" stroke-linejoin="round"/>
</g>
<g style="mix-blend-mode:overlay">
<path d="M2293.2 979.736L2167.86 977.257L1636.51 1201.09L1114.01 1406.89L603.324 1598.59L-226.836 984.136L-461.605 704.357" stroke="url(#paint29_linear_4777_965)" stroke-width="2" stroke-linecap="round" stroke-linejoin="round"/>
</g>
<g style="mix-blend-mode:overlay">
<path d="M2293.2 2249.94L2185.57 2318.84L603.324 1598.6L99.4965 1784.55L-461.605 1191.96" stroke="url(#paint30_linear_4777_965)" stroke-width="2" stroke-linecap="round" stroke-linejoin="round"/>
</g>
<g style="mix-blend-mode:overlay">
<path d="M2293.2 -426.694L2276.03 -482.175L2202.43 -624.036L2129.61 -757.439L2058.12 -882.271L1987.04 -999.892L1916.96 -1109.84L1846.96 -1213.69L1777.58 -1310.79L1707.92 -1402.35L1638.57 -1487.71L1568.49 -1568.01L1498.43 -1642.55L1427.27 -1712.01L1355.81 -1775.72L1282.88 -1834.25L1209.35 -1886.91L1134.11 -1933.82L1058 -1974.42L979.999 -2008.59L901.001 -2035.65L820.072 -2055.05L738.15 -2066.32L654.477 -2068.7L570.082 -2061.7L484.458 -2044.11L398.745 -2015.47L312.887 -1974.42L228.257 -1920.52L145.396 -1852.29L66.1648 -1769.29L-7.83019 -1670.06L-73.7901 -1554.37L-128.374 -1421.07L-166.997 -1270.53L-183.266 -1102.61L-169.092 -919.485L-112.611 -723.609L-103.421 -707.144L0.927155 -520.967L20.2475 -500.894L193.372 -320.693L232.41 -296.786L491.754 -138.011L553.687 -118.389L935.561 3.06071L1572.75 67.1123L1922.9 -0.20952L2281.5 -87.3782L2293.2 -90.761" stroke="url(#paint31_linear_4777_965)" stroke-width="2" stroke-linecap="round" stroke-linejoin="round"/>
</g>
<g style="mix-blend-mode:overlay">
<path d="M2293.2 -593.589L2285.06 -618.51L2212.94 -751.236L2142 -875.957L2072.79 -992.11L2004.42 -1101.61L1937.51 -1203.65L1871.02 -1300.07L1805.68 -1390.17L1740.4 -1475.31L1675.89 -1555.04L1611.05 -1630.25L1546.63 -1700.62L1481.44 -1766.93L1416.33 -1828.61L1350.04 -1886.35L1283.45 -1939.46L1215.31 -1988.52L1146.51 -2032.72L1075.82 -2072.41L1004.18 -2107.03L930.343 -2136.13L855.336 -2159.47L778.001 -2176.27L699.347 -2186.31L618.419 -2188.45L536.244 -2182.58L452.065 -2167.13L367.002 -2141.99L280.692 -2105.56L194.347 -2057.42L108.128 -1995.85L23.6421 -1920.4L-58.1352 -1829.29L-134.911 -1721.93L-204.301 -1596.76L-262.551 -1453.43L-304.803 -1290.83L-324.358 -1109.39L-311.773 -909.674L-254.39 -694.515L-133.756 -468.756L-118.262 -451.954L74.9222 -241.869L103.162 -223.939L408.098 -29.7544L455.894 -13.6289L915.157 141.425L1667.96 228.369L2063.07 125.976L2293.2 54.2569" stroke="url(#paint32_linear_4777_965)" stroke-width="2" stroke-linecap="round" stroke-linejoin="round"/>
</g>
<g style="mix-blend-mode:overlay">
<path d="M2293.2 1736.39L2106.43 1684.18L1114.01 1406.9L157.043 915.344L-226.836 984.135L-461.605 1024.5" stroke="url(#paint33_linear_4777_965)" stroke-width="2" stroke-linecap="round" stroke-linejoin="round"/>
</g>
</g>
</g>
</mask>
<g mask="url(#mask0_4777_965)">
<g filter="url(#filter0_d_4777_965)">
<rect y="46" width="1831" height="1630" fill="white"/>
</g>
</g>
</g>
</g>
<defs>
<filter id="filter0_d_4777_965" x="-75" y="-29" width="1981" height="1780" filterUnits="userSpaceOnUse" color-interpolation-filters="sRGB">
<feFlood flood-opacity="0" result="BackgroundImageFix"/>
<feColorMatrix in="SourceAlpha" type="matrix" values="0 0 0 0 0 0 0 0 0 0 0 0 0 0 0 0 0 0 127 0" result="hardAlpha"/>
<feOffset/>
<feGaussianBlur stdDeviation="37.5"/>
<feComposite in2="hardAlpha" operator="out"/>
<feColorMatrix type="matrix" values="0 0 0 0 1 0 0 0 0 1 0 0 0 0 1 0 0 0 1 0"/>
<feBlend mode="normal" in2="BackgroundImageFix" result="effect1_dropShadow_4777_965"/>
<feBlend mode="normal" in="SourceGraphic" in2="effect1_dropShadow_4777_965" result="shape"/>
</filter>
<linearGradient id="paint0_linear_4777_965" x1="915.799" y1="1972.19" x2="915.799" y2="4212.42" gradientUnits="userSpaceOnUse">
<stop stop-color="#A98AF4"/>
<stop offset="1" stop-color="#CC8CF2"/>
</linearGradient>
<linearGradient id="paint1_linear_4777_965" x1="915.799" y1="-211.309" x2="915.799" y2="344.858" gradientUnits="userSpaceOnUse">
<stop stop-color="#A98AF4"/>
<stop offset="1" stop-color="#CC8CF2"/>
</linearGradient>
<linearGradient id="paint2_linear_4777_965" x1="915.799" y1="73.7656" x2="915.799" y2="699.734" gradientUnits="userSpaceOnUse">
<stop stop-color="#A98AF4"/>
<stop offset="1" stop-color="#CC8CF2"/>
</linearGradient>
<linearGradient id="paint3_linear_4777_965" x1="915.799" y1="1784.55" x2="915.799" y2="3094.68" gradientUnits="userSpaceOnUse">
<stop stop-color="#A98AF4"/>
<stop offset="1" stop-color="#CC8CF2"/>
</linearGradient>
<linearGradient id="paint4_linear_4777_965" x1="915.799" y1="-1066.99" x2="915.799" y2="113.459" gradientUnits="userSpaceOnUse">
<stop stop-color="#A98AF4"/>
<stop offset="1" stop-color="#CC8CF2"/>
</linearGradient>
<linearGradient id="paint5_linear_4777_965" x1="915.799" y1="456.385" x2="915.799" y2="1292.44" gradientUnits="userSpaceOnUse">
<stop stop-color="#A98AF4"/>
<stop offset="1" stop-color="#CC8CF2"/>
</linearGradient>
<linearGradient id="paint6_linear_4777_965" x1="915.799" y1="-479.018" x2="915.799" y2="409.923" gradientUnits="userSpaceOnUse">
<stop stop-color="#A98AF4"/>
<stop offset="1" stop-color="#CC8CF2"/>
</linearGradient>
<linearGradient id="paint7_linear_4777_965" x1="915.799" y1="-213.564" x2="915.799" y2="501.49" gradientUnits="userSpaceOnUse">
<stop stop-color="#A98AF4"/>
<stop offset="1" stop-color="#CC8CF2"/>
</linearGradient>
<linearGradient id="paint8_linear_4777_965" x1="915.799" y1="51.8867" x2="915.799" y2="837.308" gradientUnits="userSpaceOnUse">
<stop stop-color="#A98AF4"/>
<stop offset="1" stop-color="#CC8CF2"/>
</linearGradient>
<linearGradient id="paint9_linear_4777_965" x1="915.799" y1="-820.363" x2="915.799" y2="3.06006" gradientUnits="userSpaceOnUse">
<stop stop-color="#A98AF4"/>
<stop offset="1" stop-color="#CC8CF2"/>
</linearGradient>
<linearGradient id="paint10_linear_4777_965" x1="915.799" y1="-860.283" x2="915.799" y2="152.137" gradientUnits="userSpaceOnUse">
<stop stop-color="#A98AF4"/>
<stop offset="1" stop-color="#CC8CF2"/>
</linearGradient>
<linearGradient id="paint11_linear_4777_965" x1="915.799" y1="343.277" x2="915.799" y2="977.256" gradientUnits="userSpaceOnUse">
<stop stop-color="#A98AF4"/>
<stop offset="1" stop-color="#CC8CF2"/>
</linearGradient>
<linearGradient id="paint12_linear_4777_965" x1="915.799" y1="704.357" x2="915.799" y2="1598.59" gradientUnits="userSpaceOnUse">
<stop stop-color="#A98AF4"/>
<stop offset="1" stop-color="#CC8CF2"/>
</linearGradient>
<linearGradient id="paint13_linear_4777_965" x1="915.799" y1="1191.96" x2="915.799" y2="2318.84" gradientUnits="userSpaceOnUse">
<stop stop-color="#A98AF4"/>
<stop offset="1" stop-color="#CC8CF2"/>
</linearGradient>
<linearGradient id="paint14_linear_4777_965" x1="1054.96" y1="-2068.7" x2="1054.96" y2="67.1124" gradientUnits="userSpaceOnUse">
<stop stop-color="#A98AF4"/>
<stop offset="1" stop-color="#CC8CF2"/>
</linearGradient>
<linearGradient id="paint15_linear_4777_965" x1="984.423" y1="-2188.45" x2="984.423" y2="228.369" gradientUnits="userSpaceOnUse">
<stop stop-color="#A98AF4"/>
<stop offset="1" stop-color="#CC8CF2"/>
</linearGradient>
<linearGradient id="paint16_linear_4777_965" x1="915.799" y1="915.344" x2="915.799" y2="1736.39" gradientUnits="userSpaceOnUse">
<stop stop-color="#A98AF4"/>
<stop offset="1" stop-color="#CC8CF2"/>
</linearGradient>
<linearGradient id="paint17_linear_4777_965" x1="915.799" y1="1972.19" x2="915.799" y2="4212.42" gradientUnits="userSpaceOnUse">
<stop stop-color="#A98AF4"/>
<stop offset="1" stop-color="#CC8CF2"/>
</linearGradient>
<linearGradient id="paint18_linear_4777_965" x1="915.799" y1="-211.309" x2="915.799" y2="344.858" gradientUnits="userSpaceOnUse">
<stop stop-color="#A98AF4"/>
<stop offset="1" stop-color="#CC8CF2"/>
</linearGradient>
<linearGradient id="paint19_linear_4777_965" x1="915.799" y1="73.7656" x2="915.799" y2="699.734" gradientUnits="userSpaceOnUse">
<stop stop-color="#A98AF4"/>
<stop offset="1" stop-color="#CC8CF2"/>
</linearGradient>
<linearGradient id="paint20_linear_4777_965" x1="915.799" y1="1784.55" x2="915.799" y2="3094.68" gradientUnits="userSpaceOnUse">
<stop stop-color="#A98AF4"/>
<stop offset="1" stop-color="#CC8CF2"/>
</linearGradient>
<linearGradient id="paint21_linear_4777_965" x1="915.799" y1="-1066.99" x2="915.799" y2="113.459" gradientUnits="userSpaceOnUse">
<stop stop-color="#A98AF4"/>
<stop offset="1" stop-color="#CC8CF2"/>
</linearGradient>
<linearGradient id="paint22_linear_4777_965" x1="915.799" y1="456.385" x2="915.799" y2="1292.44" gradientUnits="userSpaceOnUse">
<stop stop-color="#A98AF4"/>
<stop offset="1" stop-color="#CC8CF2"/>
</linearGradient>
<linearGradient id="paint23_linear_4777_965" x1="915.799" y1="-479.018" x2="915.799" y2="409.923" gradientUnits="userSpaceOnUse">
<stop stop-color="#A98AF4"/>
<stop offset="1" stop-color="#CC8CF2"/>
</linearGradient>
<linearGradient id="paint24_linear_4777_965" x1="915.799" y1="-213.564" x2="915.799" y2="501.49" gradientUnits="userSpaceOnUse">
<stop stop-color="#A98AF4"/>
<stop offset="1" stop-color="#CC8CF2"/>
</linearGradient>
<linearGradient id="paint25_linear_4777_965" x1="915.799" y1="51.8867" x2="915.799" y2="837.308" gradientUnits="userSpaceOnUse">
<stop stop-color="#A98AF4"/>
<stop offset="1" stop-color="#CC8CF2"/>
</linearGradient>
<linearGradient id="paint26_linear_4777_965" x1="915.799" y1="-820.363" x2="915.799" y2="3.06006" gradientUnits="userSpaceOnUse">
<stop stop-color="#A98AF4"/>
<stop offset="1" stop-color="#CC8CF2"/>
</linearGradient>
<linearGradient id="paint27_linear_4777_965" x1="915.799" y1="-860.283" x2="915.799" y2="152.137" gradientUnits="userSpaceOnUse">
<stop stop-color="#A98AF4"/>
<stop offset="1" stop-color="#CC8CF2"/>
</linearGradient>
<linearGradient id="paint28_linear_4777_965" x1="915.799" y1="343.277" x2="915.799" y2="977.256" gradientUnits="userSpaceOnUse">
<stop stop-color="#A98AF4"/>
<stop offset="1" stop-color="#CC8CF2"/>
</linearGradient>
<linearGradient id="paint29_linear_4777_965" x1="915.799" y1="704.357" x2="915.799" y2="1598.59" gradientUnits="userSpaceOnUse">
<stop stop-color="#A98AF4"/>
<stop offset="1" stop-color="#CC8CF2"/>
</linearGradient>
<linearGradient id="paint30_linear_4777_965" x1="915.799" y1="1191.96" x2="915.799" y2="2318.84" gradientUnits="userSpaceOnUse">
<stop stop-color="#A98AF4"/>
<stop offset="1" stop-color="#CC8CF2"/>
</linearGradient>
<linearGradient id="paint31_linear_4777_965" x1="1054.96" y1="-2068.7" x2="1054.96" y2="67.1124" gradientUnits="userSpaceOnUse">
<stop stop-color="#A98AF4"/>
<stop offset="1" stop-color="#CC8CF2"/>
</linearGradient>
<linearGradient id="paint32_linear_4777_965" x1="984.423" y1="-2188.45" x2="984.423" y2="228.369" gradientUnits="userSpaceOnUse">
<stop stop-color="#A98AF4"/>
<stop offset="1" stop-color="#CC8CF2"/>
</linearGradient>
<linearGradient id="paint33_linear_4777_965" x1="915.799" y1="915.344" x2="915.799" y2="1736.39" gradientUnits="userSpaceOnUse">
<stop stop-color="#A98AF4"/>
<stop offset="1" stop-color="#CC8CF2"/>
</linearGradient>
<clipPath id="clip0_4777_965">
<rect width="1831" height="1972" fill="white"/>
</clipPath>
<clipPath id="clip1_4777_965">
<rect width="1831" height="3630" fill="white"/>
</clipPath>
</defs>
</svg>
